<?xml version="1.0" encoding="UTF-8" standalone="no"?>
<!-- Created with Inkscape (http://www.inkscape.org/) -->

<svg
   xmlns:dc="http://purl.org/dc/elements/1.1/"
   xmlns:cc="http://creativecommons.org/ns#"
   xmlns:rdf="http://www.w3.org/1999/02/22-rdf-syntax-ns#"
   xmlns:svg="http://www.w3.org/2000/svg"
   xmlns="http://www.w3.org/2000/svg"
   xmlns:sodipodi="http://sodipodi.sourceforge.net/DTD/sodipodi-0.dtd"
   xmlns:inkscape="http://www.inkscape.org/namespaces/inkscape"
   width="333.79459"
   height="153.86877"
   id="svg2"
   version="1.1"
   inkscape:version="0.92.4 (5da689c313, 2019-01-14)"
   sodipodi:docname="blizzard.svg">
  <defs
     id="defs4">
    <inkscape:perspective
       sodipodi:type="inkscape:persp3d"
       inkscape:vp_x="0 : 526.18109 : 1"
       inkscape:vp_y="0 : 1000 : 0"
       inkscape:vp_z="744.09448 : 526.18109 : 1"
       inkscape:persp3d-origin="372.04724 : 350.78739 : 1"
       id="perspective10" />
    <marker
       orient="auto"
       markerHeight="3"
       markerWidth="4"
       markerUnits="strokeWidth"
       refY="5"
       refX="10"
       viewBox="0 0 10 10"
       id="ArrowStart">
      <path
         id="path2824"
         d="M 10,0 0,5 10,10 Z"
         inkscape:connector-curvature="0" />
    </marker>
    <marker
       orient="auto"
       markerHeight="3"
       markerWidth="4"
       markerUnits="strokeWidth"
       refY="5"
       refX="0"
       viewBox="0 0 10 10"
       id="ArrowEnd">
      <path
         id="path2821"
         d="M 0,0 10,5 0,10 Z"
         inkscape:connector-curvature="0" />
    </marker>
    <inkscape:perspective
       id="perspective2844"
       inkscape:persp3d-origin="91.143501 : 60.802002 : 1"
       inkscape:vp_z="182.287 : 91.203003 : 1"
       inkscape:vp_y="0 : 1000 : 0"
       inkscape:vp_x="0 : 91.203003 : 1"
       sodipodi:type="inkscape:persp3d" />
    <marker
       orient="auto"
       markerHeight="3"
       markerWidth="4"
       markerUnits="strokeWidth"
       refY="5"
       refX="10"
       viewBox="0 0 10 10"
       id="ArrowStart-7">
      <path
         id="path2884"
         d="M 10,0 0,5 10,10 Z"
         inkscape:connector-curvature="0" />
    </marker>
    <marker
       orient="auto"
       markerHeight="3"
       markerWidth="4"
       markerUnits="strokeWidth"
       refY="5"
       refX="0"
       viewBox="0 0 10 10"
       id="ArrowEnd-1">
      <path
         id="path2881"
         d="M 0,0 10,5 0,10 Z"
         inkscape:connector-curvature="0" />
    </marker>
    <inkscape:perspective
       id="perspective2904"
       inkscape:persp3d-origin="91.143501 : 60.802002 : 1"
       inkscape:vp_z="182.287 : 91.203003 : 1"
       inkscape:vp_y="0 : 1000 : 0"
       inkscape:vp_x="0 : 91.203003 : 1"
       sodipodi:type="inkscape:persp3d" />
  </defs>
  <sodipodi:namedview
     id="base"
     pagecolor="#000000"
     bordercolor="#666666"
     borderopacity="1.0"
     inkscape:pageopacity="0"
     inkscape:pageshadow="2"
     inkscape:zoom="2.5083334"
     inkscape:cx="225.70509"
     inkscape:cy="98.94237"
     inkscape:document-units="px"
     inkscape:current-layer="layer1"
     showgrid="false"
     inkscape:window-width="1842"
     inkscape:window-height="1009"
     inkscape:window-x="78"
     inkscape:window-y="34"
     inkscape:window-maximized="1"
     fit-margin-top="0"
     fit-margin-left="0"
     fit-margin-right="0"
     fit-margin-bottom="0" />
  <metadata
     id="metadata7">
    <rdf:RDF>
      <cc:Work
         rdf:about="">
        <dc:format>image/svg+xml</dc:format>
        <dc:type
           rdf:resource="http://purl.org/dc/dcmitype/StillImage" />
        <dc:title />
      </cc:Work>
    </rdf:RDF>
  </metadata>
  <g
     inkscape:label="Layer 1"
     inkscape:groupmode="layer"
     id="layer1"
     transform="translate(-318.227,-361.55121)">
    <path
       inkscape:connector-curvature="0"
       style="fill:#0566b0;fill-opacity:1;fill-rule:evenodd;stroke:none"
       d="m 404.97386,488.50783 c 0,0 0.6994,3.078 2.4246,1.918 1.7252,-1.158 2.4246,-2.896 4.1498,-2.896 1.7252,0 8.9168,-1.352 10.642,0 1.7252,1.352 1.898,0.192 2.7606,0.192 0.8626,0 3.3966,0.45 3.3966,0.45 2.2056,-0.23 1.756,-3.736 0.162,-4.762 -2.301,-1.802 -5.3988,-2.96 -7.6992,-4.764 -0.2306,-1.738 -0.4602,-3.476 -0.6902,-5.214 0.6324,-0.9 1.265,-1.802 1.898,-2.704 0,-2.8956 0,-5.7924 0,-8.6892 -0.3452,-0.7726 -0.6904,-1.545 -1.0354,-2.3176 -0.1152,-2.1882 -0.2302,-4.3766 -0.3452,-6.5656 -0.2874,-0.3864 -0.5752,-0.7726 -0.8626,-1.1588 0,-0.8364 0,-1.6734 0,-2.5106 0.5752,-0.8364 1.7402,-1.6732 2.3158,-2.5102 0.1724,-1.6094 -0.5988,-2.7452 -0.4262,-4.3546 -0.4028,-2.0596 -0.4518,-4.593 -0.8542,-6.6528 0,-2.5106 0,-5.0212 0,-7.5314 1.6688,-0.4976 2.0732,-1.2372 2.1924,-1.9856 0.1532,-0.9632 -0.3186,-2.097 -0.8124,-4.3874 -0.23,-12.0372 -0.3418,-24.5482 -0.5718,-36.5858 0.9178,-1.4386 2.018,-2.1828 2.0412,-3.2486 0.018,-0.8298 -0.873,-1.5216 -1.9868,-2.4574 0,-0.8368 0,-1.6732 0,-2.5106 0,0 1.898,-3.8624 3.4504,-3.8624 1.553,0 2.5882,-1.1584 2.5882,-2.317 1.4168,-2.815 -1.5528,-3.09 -1.5528,-3.09 -3.2864,-0.0682 -7.0088,0.1 -10.2146,0.0324 -2.828,-0.0602 -5.1492,-0.358 -7.901,-0.4186 -1.2078,0.0648 -2.4156,0.1286 -3.6234,0.193 -2.9682,0.9014 -2.3444,2.5132 -1.2076,3.4136 1.38,0.8688 2.5578,1.864 4.1406,1.8972 1.9316,0.0402 3.4692,0.6732 4.1408,2.6068 0.1728,7.7246 0.345,15.4494 0.5174,23.1738 0.0578,5.697 0.2334,11.3944 0.2904,17.0904 0.0576,5.6964 -0.002,11.3938 0.0548,17.0906 0.115,6.695 0.23,13.3894 0.3452,20.084 0,0 -0.3452,2.5106 -0.8628,3.09 -0.5174,0.5792 -0.345,5.6 -0.345,5.6 1.9108,1.6646 1.5046,1.4316 0.1728,3.6694 -0.1156,4.957 -0.2306,9.913 -0.3452,14.869 -0.4602,0.902 -0.9204,1.804 -1.3806,2.704 0,0 -4.9666,2.91 -4.9666,5.42 z m -83.55394,24.006 c -2.55836,-0.526 -3.03806,-1.764 -2.12934,-2.494 0.54532,-0.438 2.00308,-0.422 2.65844,-0.728 0.95904,-0.452 1.93864,-1.044 2.51604,-1.758 0.9868,-1.222 0.3882,-4.05 1.5658,-6.354 1.1316,-9.72 1.4706,-22.598 0.3396,-26.93 -0.679,-6.6764 0.018,-28.8534 0.018,-31.6642 0.7514,-1.3502 1.0334,-1.4608 1.0392,-3.8268 0.002,-0.9248 0.6242,-2.364 -0.0386,-3.5078 -0.9614,-1.0976 -0.6708,-5.389 -0.746,-7.808 -0.1112,-3.6008 0.153,-3.5712 1.155,-6.8336 0.3772,-1.2272 0.505,-2.6874 0,-3.8644 -0.8164,-1.9018 -1.9968,0.2956 -1.9182,-3.524 0.1926,-9.269 0.5382,-18.5942 0.2944,-27.8594 0.0528,-0.8256 1.4278,-0.9764 1.697,-1.7568 0.3422,-0.9922 0.4556,-2.2194 0,-3.1618 -0.258,-0.5342 -1.702,0.1606 -2.1256,-0.2442 -2.5888,-2.4736 -5.84188,-4.0274 -7.342,-7.3278 -0.58146,-1.28 0.35634,-4.1126 1.589,-4.7248 2.04212,-1.0146 5.8406,0.0342 8.075,-0.3512 1.2016,-0.207 1.962,-0.922 3.1792,-0.9756 9.4938,-0.4182 19.2632,-1.3672 28.723,-0.43 1.5142,0.15 2.0134,2.8214 3.3936,3.4846 1.892,0.9092 4.6586,0.7144 6.1088,2.266 2.3246,2.486 3.9924,4.534 4.2874,7.9802 0.362,4.2292 1.0888,9.0194 1.0532,12.268 -0.03,2.7204 -0.8476,5.1758 -2.0604,7.5156 -1.6612,3.2068 -3.6386,6.1994 -5.78,9.3672 -1.2344,1.8256 -3.4314,3.5206 -3.9484,5.6026 -0.5342,2.1522 5.0262,0.5722 6.1638,2.4566 1.0934,1.8116 -0.9328,3.9342 -0.3216,5.9756 0.5458,1.8206 3.6984,1.998 4.0726,3.8644 0.9656,4.8172 -1.165,9.9112 -0.3392,14.7558 0.264,1.5512 2.7252,1.6064 2.9644,3.1622 0.2904,3.3616 0.1866,6.92 0.2128,10.4914 0.0274,3.8014 0.1748,7.6198 0.1262,11.2334 -0.0934,1.3622 -1.8768,2.1588 -2.036,3.5128 -0.4248,3.606 0.8142,7.678 0.018,11.214 -0.839,3.724 -3.833,6.354 -5.001,9.982 -1.0116,3.142 -0.7246,7.73 -2.3572,9.7 -2.7,0.848 -6.0608,2.748 -8.1876,4.332 -3.1078,2.312 -5.0946,4.962 -6.05,5.046 -1.214,1.08 -3.7822,0.358 -5.2874,0.92 -1.388,0.516 -1.5188,1.68 -2.9824,1.49 -1.1558,-0.148 -0.7956,-1.108 -1.697,-1.87 -0.5248,-0.446 -1.534,-0.474 -2.0362,0 -3.0464,2.452 -0.7742,1.81 -4.2334,1.49 -3.514,-0.324 -10.3538,0.76 -14.63154,-0.116 z m 19.68594,-14.102 c 0.792,-1.522 1.584,-3.044 2.3762,-4.568 -0.2268,-5.034 -0.4528,-10.07 -0.6792,-15.106 0.6792,-0.938 1.3578,-1.874 2.0364,-2.812 0,-5.072 0,-10.144 0,-15.2166 0,-2.306 -0.3214,-4.6118 -0.3214,-6.9168 -2.3824,-1.9706 -1.2432,-1.942 0.6786,-4.2158 0,-2.2248 0.5366,-4.0198 0.5366,-6.2452 -0.2268,-1.8734 -0.4528,-3.7474 -0.6792,-5.6212 0.3398,-0.9366 0.6792,-1.8736 1.0184,-2.8106 0,-2.8178 0.3214,-5.098 0.3214,-7.9162 0,-2.646 0.0766,-3.5324 0.5604,-3.3666 0.4838,0.1656 1.3754,1.3846 3.0032,2.9496 1.2368,1.1894 2.4744,2.3794 3.7116,3.5684 2.2854,2.1962 4.5108,2.396 3.5846,5.9946 -0.8656,3.3666 1.6222,4.3006 0.849,7.6414 -0.5906,2.5518 -1.367,4.112 -1.195,5.694 0.1026,0.949 0.5474,1.906 1.5766,3.0896 0.9514,1.0936 1.2684,1.0254 0.6998,2.3714 -0.8818,2.0858 -1.6334,3.3022 -1.7216,4.5544 -0.1136,1.609 0.763,2.3486 1.5318,5.191 0.6292,2.325 0.5702,3.8666 -0.012,6.1986 -0.6894,2.766 -1.3788,5.532 -2.0684,8.298 -0.0776,2.092 -0.2682,4.186 -0.4168,6.28 -0.2248,3.19 -0.65,3.272 -2.8682,5.552 -2.0152,2.072 -4.6088,3.844 -6.553,5.696 -2.1492,0.82 -3.8212,0.896 -5.9706,1.716 z m 5.1924,-88.7696 c 1.7218,0.0506 2.4918,0.221 3.0256,0.001 0.534,-0.2204 0.8322,-0.8314 1.611,-2.342 1.0058,-1.9532 2.4956,-4.394 3.7312,-4.5776 2.0816,-0.309 3.1676,-0.6188 3.1676,-0.6188 0,0 1.0894,-0.2064 0.7168,-2.891 -0.373,-2.6846 -1.1412,-5.2662 -0.4642,-5.9888 0.6764,-0.7226 0.8194,-2.7876 0.0992,-3.6138 -0.7194,-0.8256 -1.4038,-1.652 -0.241,-2.7876 1.1626,-1.1358 1.9642,-3.0372 -0.814,-2.7272 -2.778,0.3098 -2.7436,-0.8926 -3.0646,-1.719 -0.3214,-0.8258 -3.3516,-0.6372 -4.936,-0.7282 -1.5828,0.3098 -2.9138,0.2064 -2.8682,1.8582 0.0462,1.6518 -0.22,9.6146 -0.1972,10.4406 0.0228,0.826 0.2338,15.694 0.2338,15.694 z m 87.8756,72.4816 c -0.1238,0.702 -1.7352,0.706 -1.6114,1.41 0.1732,0.982 0.2376,2.516 1.2272,2.644 2.8698,0.372 6.8042,-0.77 9.65,-0.244 1.1238,0.208 1.1852,2.124 2.2156,2.618 0.8464,-0.014 2.1494,0.016 3.223,0 0.8264,-0.43 0.6042,-1.946 1.41,-2.416 0.9922,-0.58 2.3456,-0.8 3.4242,-0.404 0.5806,0.214 -0.2118,1.74 0.4028,1.814 5.0204,-0.19 9.5054,0.36 14.2554,0 0.9486,-0.156 -0.018,-1.514 0.7592,-2.078 0.8834,-0.642 3.0738,0.478 3.2228,-0.604 0.7714,-5.594 -0.4328,-11.84 0.0926,-17.461 0.1682,-1.7996 1.8948,-2.8666 2.281,-4.6328 0.1284,-0.5882 0.8336,-0.5986 0.8896,-1.178 0.1956,-2.0172 0.1598,-4.4638 -0.3506,-6.4502 -0.6768,-0.694 -2.7456,-0.9464 -3.4242,-0.6304 -0.7646,0.5632 -0.0694,2.562 -0.5828,3.3602 -0.254,0.3954 -1.1582,-0.3962 -1.41,0 -0.2474,0.3896 0.0724,1.0288 0.1858,1.5342 0.068,0.3028 0.0618,0.5582 -0.1858,0.6816 -1.321,0.6604 -3.266,-0.9066 -4.4314,0 -1.1438,0.8896 0.1404,2.611 -0.8272,3.6896 -1.5686,1.7482 -4.9298,2.7724 -6.4922,4.5262 -1.8578,2.0846 -1.692,4.2126 -3.8268,6.0126 -1.6712,1.408 -4.5108,1.556 -6.5358,2.378 -2.3474,0.954 -3.4684,2.712 -5.9066,3.398 -0.7368,0.208 -1.6356,-1.08 -1.41,-1.812 1.8268,-5.922 4.2008,-11.8758 6.1732,-17.7514 1.265,-3.7694 1.859,-6.1474 3.2258,-9.882 1.4146,-3.8646 3.2622,-8.6414 5.5718,-12.0478 0.4548,-0.6712 1.9724,-0.233 2.2158,-1.0072 0.6038,-1.9214 -0.5262,-4.0988 0,-6.0428 0.389,-1.4388 1.9038,-2.8196 3.1576,-3.6258 0.8468,-0.5444 2.1986,0.2142 2.5724,-0.7206 0.873,-2.1824 0.0574,-4.4942 0.6072,-6.7796 0.3706,-1.5396 1.428,-2.4832 2.1012,-3.9172 0.8928,-1.9034 0.8276,-3.5556 1.8128,-5.413 0.802,-1.5112 2.4894,-3.6264 2.9754,-5.2674 0.6674,-2.2534 0.1204,-3.3594 0.3376,-5.6998 0.0582,-0.63 0.9814,-0.9788 1.0072,-1.6114 0.3126,-7.58 0.7138,-15.1868 0.269,-22.761 -0.036,-0.6172 -1.4224,-0.5906 -1.41,-1.2086 0.0482,-2.3146 0.329,-4.3596 0.2014,-6.4456 -0.0244,-0.4076 0.1164,-0.7414 -0.291,-0.7584 -6.3074,-0.2646 -12.533,-0.121 -18.8446,-0.0474 -5.1698,0.0598 -10.3526,-0.3546 -15.51,0 -0.7804,0.0536 -1.4798,0.1878 -2.0144,0.7584 -0.5128,0.5474 -0.7674,1.7156 -0.7376,2.4644 0.1358,3.3662 -0.0676,7.031 0,11.0786 0.012,0.75 1.4898,0.3012 1.7448,1.0072 0.7102,1.9664 0.7646,4.1602 0.6044,6.2442 -0.0512,0.6696 -0.8652,1.5712 -0.8494,2.2416 0.3236,2.3302 0.6254,3.977 1.0508,6.2184 0.2446,0.8668 0.9904,1.5438 1.2086,2.4172 0.2604,1.044 -0.6916,3.153 0.3812,3.2228 0.3564,0.0228 1.5998,0.2306 2.2372,0 0.8196,-0.297 -0.3014,-1.7996 0,-2.6186 0.2136,-0.5806 1.312,-0.598 1.41,-1.2084 0.5326,-3.3168 -0.3928,-7.2034 0.1334,-10.5218 0.1604,-1.0112 0.74,-2.0794 1.6114,-2.6184 0.7414,-0.459 2.0828,0.6886 2.6186,0 0.7426,-0.9554 0.012,-2.056 0.471,-3.1756 0.6574,-1.6022 1.7268,-3.0796 3.0214,-4.23 1.189,-1.057 2.3786,-2.322 3.9604,-2.4866 3.5368,-0.3674 7.7674,-0.0376 12.5568,-0.2438 0.449,-0.02 0.5698,0.6704 0.6042,1.119 0.1694,2.209 0.5716,5.2102 0,6.6472 -0.8294,2.0856 -2.7058,4.4134 -4.6108,6.5794 -1.3032,1.481 -2.6206,2.7918 -3.6262,4.2764 -1.2052,1.7798 0.5956,4.2068 -0.0216,6.2656 -0.6316,2.106 -2.3568,4.3446 -3.6938,6.0902 -1.0968,1.432 -2.709,2.165 -3.737,3.6468 -1.2838,1.8502 -2.0314,3.6722 -2.842,5.773 -0.674,1.7468 -1.1084,3.5904 -1.41,5.4386 -0.238,1.4594 0.4594,3.1094 -0.2014,4.4314 -0.4842,0.9684 -1.5766,0.7898 -2.281,1.6114 -0.9768,1.14 -1.549,2.6014 -2.0142,4.0286 -0.5512,1.6902 -0.5964,2.6916 -1.4566,4.247 -0.9652,1.7448 -2.9026,3.43 -3.7806,5.22 -0.9578,1.9524 -1.0674,4.3248 -1.5462,6.4458 -0.463,2.0512 -0.8502,3.9832 -1.2738,6.0428 -0.5188,2.5206 -1.0602,5.0818 -1.0072,7.6544 0.016,0.7828 0.844,1.3218 1.2086,2.0142 0.3078,0.5848 1.0146,1.1858 0.8058,1.8128 -0.2854,0.8568 -1.8868,0.9188 -2.0144,1.813 -0.1316,0.9232 0.1034,1.7758 0.7812,2.4178 0.5894,0.556 1.7926,0.314 2.2158,1.006 0.4552,0.746 0.3734,1.83 0,2.618 -0.3106,0.658 -1.4012,0.498 -1.5434,1.21 -0.5792,2.898 0.1318,4.962 -0.3812,7.872 z m 174.6448,28.546 c -0.378,-1.2 0.566,-1.434 1.194,-2.06 0.918,-0.916 1.806,-1.81 2.17,-3.614 0.138,-0.684 0.838,-1.79 1,-2.886 0.238,-1.6 -0.126,-3.268 -0.562,-4.302 -0.572,-1.354 -1.51,-2.06 -1.17,-3.352 0.12,-0.826 1.988,-0.928 3.46,-1.582 0.772,-0.342 1.434,-1.012 1.68,-1.642 0.322,-0.83 -0.75,-0.688 -1.296,-1.742 -0.582,-1.122 -0.668,-2.802 -1.116,-3.638 -0.782,-1.456 -2.212,-3.41 -2.264,-5.064 -0.14,-4.412 1.138,-8.866 1.302,-13.111 0.138,-3.5596 0.98,-4.408 0.708,-8.0554 -0.134,-1.8162 -1.11,-3.1378 -2.118,-4.992 -0.834,-1.5368 -1.93,-3.0576 -2.35,-4.5072 -0.746,-2.5794 0.004,-5.637 -0.448,-8.2838 -0.088,-0.5188 -1.388,-1.1534 -1.436,-1.678 -0.336,-3.6336 0.074,-7.3544 -0.16,-10.9484 -0.12,-0.6762 -0.668,-0.805 -0.732,-1.4886 -0.19,-2.0146 -0.002,-3.9766 -0.008,-5.718 -0.006,-1.5368 -0.218,-2.85 -0.218,-4.6358 0,-0.6658 -0.552,-1.1218 -0.574,-1.7876 -0.134,-3.9296 0.03,-8.2688 -0.022,-12.2048 -0.056,-4.1902 -0.312,-7.9778 0.022,-12.1502 0.058,-0.7034 1.48,-0.6864 1.452,-1.3912 -0.132,-3.1972 -0.408,-4.4688 -0.334,-7.6846 0.008,-0.371 0.768,-1.2332 0.798,-1.6032 0.222,-2.6754 0.554,-5.3534 -0.128,-7.643 -0.492,-1.6584 -1.736,-2.175 -3.164,-3.2448 -1.26,-0.945 -2.666,-2.4812 -3.832,-3.3422 -1.492,-1.1026 -2.486,-1.9894 -3.616,-3.6406 -0.68,-0.9938 0.442,-1.0806 1.694,-1.1172 1.608,-0.047 3.364,0.0934 4.894,0.333 0.518,0.081 1.492,0.9736 1.982,1.1634 1.18,0.4576 1.952,-0.1366 3.16,0.2404 0.922,0.2882 4.772,2.2954 5.808,2.8924 1.416,0.8156 1.874,2.0008 3.352,2.6936 0.266,0.1246 4.832,1.4316 5.362,1.5642 1.236,0.3086 2.004,-0.5952 3.24,-0.2866 1.436,0.358 3.99,1.0814 5.602,1.564 0.908,0.2716 1.482,1.3448 2.412,1.53 4.51,0.9 3.704,-0.6034 7.276,2.968 1.052,1.0524 2.79,1.8976 3.574,3.1622 1.108,1.7846 1.224,3.972 1.928,5.917 0.548,1.5122 1.772,2.7544 2.062,4.3612 0.782,4.3242 -0.034,8.8208 0.496,13.183 0.162,1.3324 1.532,2.7378 1.676,4.0726 0.546,5.11 0.638,10.1558 0.016,15.257 -0.21,1.7194 -1.658,2.4188 -1.916,4.1316 -0.43,2.8732 0.428,5.8156 0.224,8.7142 -0.096,1.388 -0.868,2.837 -1.596,4.0218 -0.532,0.8628 -1.748,1.1738 -2.138,2.1078 -1.026,2.452 -0.768,5.8044 -1.244,8.4612 -0.148,5.071 -0.044,9.005 0.174,14.073 0.154,3.5722 0.52,6.7786 0.064,10.3246 -0.16,1.228 -1.188,1.902 -1.372,3.128 -0.508,3.388 -0.072,6.868 -0.4,10.278 -0.056,0.58 -0.916,1.252 -1.038,1.822 -0.228,3.116 -0.446,7.664 -1.804,11.172 -0.894,2.314 -3.068,4.646 -5.156,5.986 -2.022,1.298 -4.196,1.578 -6.526,2.172 -1.472,0.374 -3.12,0.194 -4.468,0.892 -0.808,0.42 -0.266,0.426 -1.004,0.954 -0.426,0.302 -1.162,0.328 -1.564,0 -0.568,-0.466 -0.392,-0.656 -1.054,-0.97 -1.01,-0.478 -2.326,-0.44 -3.352,0 -0.74,0.318 -0.47,0.896 -1.262,1.05 -1.598,0.312 -3.47,0.716 -5.198,0.67 -1.034,-0.026 -1.85,0.44 -2.142,-0.494 z m 14.998,-114.7442 c 2.244,-0.1188 2.684,-0.2406 4.682,0.8326 2.066,1.1078 2.498,1.8386 3.76,3.8404 0.652,0.628 1.302,1.2564 1.952,1.884 2.654,2.5616 3.906,6.177 4.99,9.5648 0.178,3.678 0.968,10.1216 -0.868,13.459 -0.916,1.666 -1.278,2.9518 -1.434,4.3654 -0.434,3.9552 -1.556,3.3376 -2.698,6.3328 -0.31,0.8124 -0.242,1.8232 -0.27,3.7516 -0.1,6.8854 -0.202,13.7718 -0.302,20.657 -0.064,4.3994 -0.892,6.4984 -2.67,10.5606 -1.044,1.942 -1.592,3.194 -1.592,5.398 0,2.612 -0.534,3.816 -1.572,6.196 -0.632,1.448 -1.266,2.898 -1.898,4.348 -0.75,1.718 -1.438,2.334 -1.936,2.104 -0.498,-0.228 -0.806,-1.306 -0.798,-2.974 0.044,-8.406 0.088,-16.81 0.132,-25.216 0.096,-8.9368 0.192,-17.8736 0.288,-26.81 -0.112,-1.9192 -0.04,-2.3444 -1.3,-3.7678 -0.118,-2.893 -0.676,-4.2016 -1.592,-6.956 -1.156,-2.1718 -1.024,-3.7562 -1.052,-6.239 -0.072,-6.211 -0.146,-12.423 -0.218,-18.634 -0.044,-3.8114 0.818,-2.5084 4.396,-2.6974 z m -146.4722,106.8582 c -0.6912,-3.38 -0.2078,-6.066 -0.0266,-8.608 0.0864,-0.606 1.309,-0.04 1.6412,-0.552 0.4956,-0.766 0.9432,-1.816 0.6156,-2.668 -0.1964,-0.51 -0.544,0.194 -0.8376,-0.268 -0.4054,-0.636 -0.263,-1.664 0.205,-2.256 0.6828,-0.866 2.0488,-0.642 2.5152,-1.642 0.6362,-1.364 -0.4556,-3.08 0,-4.514 0.145,-0.456 1.3236,0.466 1.4362,0 0.5316,-2.194 -0.1296,-4.538 0.2052,-6.77 0.0872,-0.582 0.601,-0.852 0.6686,-1.436 0.2846,-2.446 0.4328,-4.962 0,-7.3864 -0.2686,-1.505 -1.4848,-2.5886 -1.6944,-4.1032 -0.7614,-5.4934 -0.9918,-11.4748 -0.285,-16.9758 0.549,-4.2706 3.2718,-10.8746 4.8708,-14.8728 1.0002,-2.501 1.4906,-1.721 2.3898,-4.2608 0.2746,-0.7762 0.4652,-1.6808 0.2052,-2.462 -0.324,-0.973 -1.4724,-1.7168 -1.3108,-2.7298 0.1982,-1.241 1.7244,-1.2098 2.1314,-2.3994 0.5532,-1.6172 -0.5602,-3.514 0,-5.129 0.6592,-1.9002 2.9306,-2.9916 3.4878,-4.924 0.532,-1.844 -0.0382,-4.79 0.4826,-6.6376 1.0296,-3.6502 2.2664,-6.008 4.0312,-9.3654 1.042,-1.9824 2.8528,-3.6574 3.6664,-5.7448 0.7844,-2.0112 0.7044,-4.6738 1.0524,-6.36 -1.2822,-1.6028 -4.2246,0.6342 -6.155,-0.0628 -0.9794,-0.3534 -0.976,-1.9548 -1.9454,-2.3366 -2.0762,-0.1412 -4.0614,-0.189 -5.5394,0.9196 -1.9828,1.4868 -1.9986,3.2298 -2.7736,5.583 -1.1582,3.5162 -0.2754,7.4666 -1.721,10.8738 -0.5716,1.3474 -2.9036,1.7262 -4.0236,2.6672 -0.5926,0.4976 -0.868,1.0164 -1.6414,1.0164 -0.7738,0 -1.4482,-0.2672 -1.6414,-1.0164 -0.3928,-1.5226 0.0766,-3.1476 0,-4.7188 -0.0602,-1.2368 -0.7226,-2.4948 -0.4102,-3.693 0.1628,-0.6242 1.5914,-0.3824 1.6414,-1.0258 0.6134,-7.0492 -0.2298,-14.053 -0.1222,-20.789 0.0378,-2.365 0.6654,-2.0144 2.9936,-2.038 3.9214,-0.0404 10.1366,-0.01 14.644,-0.0328 7.9082,-0.0396 15.8362,-0.3348 23.7222,-0.1188 1.174,0.085 2.702,0.5208 2.784,1.6944 0.166,2.3732 -1.424,4.6616 -2.524,6.7706 -0.582,1.1146 -1.882,1.8432 -2.31,3.0242 -0.728,2.0018 0.062,4.3738 -0.706,6.3602 -0.47,1.219 -2.86,1.4444 -3.318,2.6672 -0.65,1.7298 0.472,3.8204 -0.206,5.5394 -0.336,0.8536 -2.156,0.366 -2.462,1.231 -1.032,2.9276 -0.426,6.2344 -1.23,9.2326 -0.446,1.655 -1.7,2.8154 -1.926,4.5136 -0.616,4.6096 0.4,9.3186 0,13.9514 -0.088,1.0058 -1.15,1.6998 -1.438,2.6672 -0.676,2.275 -1.102,4.7336 -1.882,6.9756 -0.336,0.9684 -1.584,1.4706 -1.846,2.462 -0.3852,1.4544 0.58,3.126 0,4.5136 -0.7304,1.7448 -3.3008,2.4582 -3.6932,4.3086 -1.1076,5.2218 0.6462,10.7276 -0.169,16.0028 -0.3646,2.3608 -2.4454,4.2156 -2.8724,6.5654 -0.5502,3.0276 0.3976,6.6072 -0.3572,9.5892 -0.728,2.88 -2.8154,5.376 -3.862,8.154 -0.245,2.726 -3.5114,5.228 -1.7306,7.288 2.1484,0.284 5.7136,0.722 8.2066,-0.412 1.1476,-0.52 -0.1814,-2.928 0.8208,-3.692 3.0634,-2.34 6.579,-3.184 10.017,-4.924 1.966,-0.996 4.438,-1.946 6.192,-3.282 0.89,-0.68 0.992,-2.294 2.05,-2.668 0.638,-0.226 0.77,1.322 1.436,1.436 2.292,0.39 4.28,-0.59 6.53,0 0.9,0.236 0.872,1.446 1.106,2.346 0.21,0.806 0.574,1.674 0.126,2.372 -0.27,0.42 -1.248,-0.048 -1.438,0.412 -0.39,0.948 -0.238,2.08 0,3.076 0.188,0.776 0.898,1.258 0.964,2.052 0.352,4.158 0.468,8.37 0,12.516 -0.098,0.87 -0.592,1.782 -1.462,1.872 -5.918,-0.272 -11.388,0.162 -17.314,0.18 -0.61,-0.054 -0.26,-1.134 -0.822,-1.374 -1.528,-0.656 -4.2834,-0.746 -5.9052,-0.374 -1.8864,0.432 -2.0442,1.984 -3.9418,2.362 -3.4198,0.684 -7.3724,0.014 -10.8208,0.536 -1.2188,0.184 -2.1496,1.218 -3.3452,1.516 -1.6588,0.414 -4.2746,0.856 -5.1292,-0.624 z m -91.3884,9.636 c -2.5584,0.898 -5.5432,0.002 -8.2548,0.06 -0.8358,0.018 -2.1962,0.674 -2.999,0.438 -0.8764,-0.256 -2.2574,-1.994 -1.7096,-2.726 2.1402,-2.854 6.3594,-3.21 8.3134,-6.192 1.1492,-1.754 0.0728,-4.116 0.5666,-6.154 0.1516,-0.626 1.2484,-0.568 1.5728,-1.124 0.2636,-0.452 0.341,-1.174 0,-1.572 -0.7792,-0.91 -1.2726,0.998 -1.58,-1.726 -0.2752,-2.436 -0.333,-4.91 -0.107,-7.344 0.142,-1.55 1.2688,-1.222 1.4818,-2.04 0.3966,-1.522 -0.4286,-2.65 -0.02,-4.17 0.1832,-0.682 1.4474,-0.51 1.7976,-1.124 0.3338,-0.584 0.3734,-1.46 0,-2.022 -0.7654,-1.148 -2.8458,-1.13 -3.0776,-2.49 -0.4264,-2.502 -0.198,-5.188 -0.154,-7.6704 0.047,-2.6438 -0.1346,-5.2952 0.086,-7.989 0.0406,-0.4996 1.172,-0.4784 1.348,-0.9482 0.3414,-0.9112 0.1254,-1.9556 0,-2.921 -0.1004,-0.7744 0.1376,-2.3588 0.0782,-3.1376 -0.091,-1.1966 -0.6052,-1.641 -0.049,-2.7042 0.3878,-0.7408 1.652,-0.2948 1.7684,-1.1234 0.6146,-4.3758 -0.6974,-8.8624 -0.2248,-13.2564 0.0802,-0.7444 1.2522,-0.626 1.4492,-1.3482 0.3172,-1.165 0.4152,-2.504 -0.101,-3.595 -0.2434,-0.515 -1.3918,-0.517 -1.4362,-1.0852 -0.5046,-6.4208 0.3734,-12.491 -0.1366,-18.9118 -0.0478,-0.6014 -1.5246,0.242 -1.552,-2.3674 -0.0304,-2.7348 -0.2824,-5.284 -0.2454,-7.2942 0.0286,-1.5424 3.3564,-1.584 3.3212,-3.1264 -0.0536,-2.3504 0.3168,-5.003 -0.2248,-7.4146 -0.174,-0.7754 -1.1856,-0.6472 -1.5236,-1.3674 -0.3182,-0.6764 -0.018,-1.351 0.2732,-2.0412 0.3496,-0.8306 1.2996,-1.3548 1.5242,-2.2278 0.4112,-1.5948 0.37,-3.3374 0,-4.943 -0.1212,-0.5254 -1.028,-1.0388 -1.28,-1.5156 -0.4668,-0.8824 -0.2558,-1.6612 -0.8792,-2.4412 -0.4308,-0.5382 -1.7028,-0.2076 -2.227,-0.655 -1.349,-1.152 -2.1268,-2.4328 -3.2582,-3.482 -1.0636,-0.9854 -2.4972,-1.728 -3.3166,-3.1788 -0.5266,-0.932 0.0868,-2.5442 0.9378,-3.195 0.6536,-0.4996 1.6774,-0.3866 2.4034,0 0.5902,0.3148 0.5786,1.5686 1.2406,1.6604 2.896,0.4034 5.7704,-0.8714 8.626,-0.2438 1.2448,0.2738 1.3112,1.8462 2.4716,2.3728 0.7762,0.3526 2.1754,-0.329 2.8818,0.1482 1.0368,0.7006 1.9164,2.1912 2.7338,3.0236 1.0506,1.0702 1.9564,1.5466 2.493,3.062 0.677,1.9134 0.3804,3.8766 0.3506,5.8668 -0.0262,1.756 0.2596,3.5344 0.0984,5.3182 -0.054,0.6 -1.2064,0.3176 -1.3676,0.8986 -0.2828,1.02 -0.0806,2.1618 0.4494,3.0772 0.3854,0.6666 1.4294,0.3272 1.6804,1.0548 0.5856,1.7004 0.6602,3.7848 0.2246,5.5296 -0.162,0.6496 -1.4158,0.231 -1.4556,0.8988 -0.5046,8.4484 -0.6306,16.9702 0.2246,25.3894 0.145,1.4312 2.4076,1.9408 2.5596,3.3704 0.848,7.969 0.076,16.035 -0.2538,24.0414 -0.0464,1.1388 -0.6108,2.57 -1.0748,3.4198 -0.5192,0.9498 -0.1964,1.8988 -0.177,2.947 0.0254,1.3478 -0.1358,2.8176 0.0694,4.1934 0.1172,0.7858 1.7158,1.5338 1.6608,2.3266 -0.1514,2.1842 0.1592,3.2166 0.2928,5.3702 0.0644,1.0366 -1.8236,1.6846 -2.4224,2.5326 -0.4308,0.61 -0.6928,1.792 -0.3418,2.452 0.331,0.622 0.9256,0.306 1.1138,0.986 0.2662,0.962 0.2886,1.774 -0.1956,2.648 -0.3124,0.562 -1.4636,0.488 -1.5728,1.122 -0.306,1.778 0.7036,3.608 0.4494,5.394 -0.076,0.534 -1.2684,0.364 -1.3482,0.898 -0.3994,2.666 0.452,5.43 0,8.088 -0.1706,1.004 -1.7256,1.456 -1.7974,2.472 -0.0404,0.568 1.3044,0.172 1.5728,0.674 0.424,0.796 -0.6404,2.444 0.2246,2.696 2.8748,0.842 6.4324,0.624 9.3294,-0.136 1.6408,-0.432 2.3352,-2.732 4.0248,-2.892 2.0354,-0.192 3.5372,1.152 5.549,1.512 2.6526,0.478 5.5544,0.564 8.1568,-0.136 1.5358,-0.414 2.428,-2.044 4.0054,-2.254 6.8282,-0.918 13.165,-0.354 20.0548,-0.39 6.5146,-0.036 14.8488,-0.364 19.6852,0.164 2.7584,0.092 -0.2326,9.85 0.762,15.004 0.2164,1.122 1.175,1.75 1.751,2.788 0.9188,1.656 1.275,2.498 -1.1106,2.488 -4.4874,-0.022 -9.028,0.324 -13.8968,0.118 -0.9566,-0.04 -0.9104,-1.884 -1.7976,-2.248 -0.9722,-0.398 -2.1246,0.472 -3.1456,0.226 -1.53,-0.37 -3.2544,-1.836 -4.816,-2.022 -4.164,-0.5 -8.3602,0.544 -12.5138,-0.03 -0.9428,-0.13 -1.0728,-1.954 -2.0222,-2.024 -9.7098,-0.71 -19.0136,0.31 -28.733,-0.22 -2.082,-0.114 -2.2718,-0.84 -3.5932,-1.224 -1.8698,-0.54 -5.2136,-0.756 -6.9748,0.07 -3.2824,1.536 -3.272,4.442 -6.6916,5.644 z m 116.8846,-37.964 c -2.0284,-0.06 -2.1634,-3.318 -2.0022,-5.316 0.1648,-2.044 2.8342,-1.9368 3.7862,-3.7522 0.694,-1.3218 -0.346,-3.6456 0.446,-4.9118 0.852,-1.3636 3.162,-1.313 4.014,-2.6764 0.488,-0.7792 -0.24,-2.2738 -0.218,-3.1926 0.054,-2.1754 0.542,-3.778 0.442,-5.9514 -0.052,-1.1306 -0.522,-3.1726 -0.308,-4.284 0.294,-1.518 1.198,-1.1496 1.646,-2.6298 0.558,-1.8514 -0.37,-3.958 0.222,-5.7986 0.236,-0.728 2.144,-0.3626 2.008,-1.1152 -0.166,-0.9158 -1.836,-0.4228 -2.002,-1.3382 -0.506,-2.7872 -0.534,-6.0668 0.218,-8.7976 0.47,-1.7082 2.408,-3.0152 2.9,-4.7184 0.514,-1.7846 -0.574,-3.8084 0,-5.5756 0.388,-1.1998 2.37,-1.4532 2.676,-2.6762 0.72,-2.8854 0.078,-6.4246 0.828,-9.302 0.394,-1.51 1.182,-3.2216 2.148,-4.168 0.58,-0.5682 1.102,-0.981 1.374,-1.8764 0.372,-1.2264 -0.542,-2.2578 -0.332,-3.5224 0.186,-1.1188 1.04,-1.837 1.582,-2.832 0.686,-1.2564 0.972,-2.8482 1.63,-4.1178 0.96,-1.8562 2.252,-3.409 2.94,-5.3838 0.514,-1.4724 -0.59,-3.874 0.068,-5.289 0.932,-2.0036 3.34,-1.9542 4.258,-3.9646 0.742,-1.624 -0.556,-3.7466 0.224,-5.3526 0.566,-1.17 1.844,-1.6866 3.142,-1.7382 0.952,-0.0378 2.108,0.621 2.432,1.515 0.638,1.7518 0.062,3.8568 0.784,5.5758 1.266,3.023 3.462,4.8048 4.68,7.8482 0.634,1.5868 -0.052,3.8686 0.336,5.5332 0.528,2.263 0.898,4.5452 1.646,6.749 0.928,2.7444 2.258,5.4064 3.038,8.1936 0.69,2.4684 0.856,5.1466 1.388,7.659 0.39,1.8332 1.102,3.5164 1.734,5.2766 0.27,0.7558 1.184,0.564 1.402,1.338 0.382,1.3674 -0.766,2.8542 -0.446,4.2376 0.38,1.653 2.16,3.328 2.452,4.9988 0.476,2.709 -0.02,5.3002 0.046,8.05 0.06,2.513 0.326,4.8468 0.656,7.256 0.204,1.4826 1.024,3.5966 1.062,4.674 0.138,4.014 0.316,7.9658 0.36,11.9844 0.068,5.873 0.068,12.1516 -0.226,18.0136 -0.034,0.684 -0.85,1.034 -1.09,1.676 -0.91,2.43 -1.672,3.774 -2.256,6.304 -0.308,1.334 -0.318,2.77 -0.892,4.014 -0.352,0.764 -1.922,1.39 -2.188,2.188 -0.59,1.776 0.134,3.562 0.004,5.778 -0.11,1.908 -0.9,3.004 -1.694,4.778 -0.544,1.212 -1.428,3.102 -1.764,4.366 -0.366,1.372 0.292,2.876 -0.11,4.238 -0.212,0.712 -1.184,1.056 -1.338,1.784 -0.386,1.818 0.334,3.802 -0.224,5.574 -0.314,1.004 -0.532,0.858 -1.49,1.29 -0.68,0.304 -2.464,0.65 -2.566,-0.09 -0.432,-3.104 0.442,-5.26 -0.05,-8.358 -0.576,-3.624 -2.092,-5.828 -3.006,-9.384 -0.444,-1.726 0.35,-4.846 -0.47,-6.428 -1.476,-2.85 -6.202,-4.002 -5.996,-7.204 0.198,-3.098 2.05,-5.114 3.936,-7.634 1.288,-1.726 2.126,-4.544 2.928,-6.51 0.59,-1.4498 0.934,-3.148 0.96,-4.578 0.04,-2.1344 -0.538,-3.0634 -2.154,-4.3908 -3.376,-2.7742 -8.832,-5.311 -13.034,-7.354 -0.616,-0.2994 -1.338,0.876 -1.338,1.5612 0,0.6854 0.802,1.2182 0.882,1.8976 0.234,1.9986 -0.976,4.0722 -0.11,5.8872 0.914,1.9178 4.52,2.476 3.986,4.5314 -0.36,1.3764 -0.698,1.8614 -1.866,2.5334 -0.708,0.408 -1.494,0.38 -2.322,0.418 -2.484,0.114 -5.038,-0.766 -7.438,-0.258 -2.606,0.552 -4.938,1.756 -7.346,2.956 -1.594,0.796 -3.224,1.846 -4.988,1.792 z m 21.968,-31.1804 c -0.022,-1.9674 -0.07,-3.9036 -0.066,-5.8386 0.004,-1.7086 0.046,-3.4168 0.18,-5.1458 0.088,-1.1234 1.116,-1.9806 1.248,-3.099 0.222,-1.8494 -0.914,-4.0688 -0.396,-5.8472 0.208,-0.7218 2.038,0.002 2.452,-0.6048 0.136,-0.1988 0.414,-1.3564 0.876,-2.3436 0.278,-0.5922 0.856,-1.1238 0.856,-1.3506 0,-0.3306 -0.022,-2.6784 0.226,-4.7126 0.144,-1.1808 0.326,-2.178 0.506,-2.1858 0.178,-0.008 0.358,0.971 0.984,1.7854 0.72,0.937 0.964,1.8664 1.594,2.8574 0.372,0.5848 0.772,1.2734 1.386,1.5118 0.782,0.304 1.718,-0.1238 2.496,0.1902 0.582,0.2346 0.724,1.148 1.248,1.5118 0.354,0.2462 1.166,-0.2226 1.248,0.2268 0.37,2.025 0.05,4.735 0.372,6.7692 0.078,0.4876 1.156,0.2608 1.18,0.7558 0.164,3.5426 0.246,7.0908 0.234,10.6392 -0.01,3.131 -0.092,6.263 -0.254,9.3916 -0.044,0.8916 -2.4,0.954 -3.058,0.4534 -1.272,-0.9692 -2.078,-2.094 -3.742,-2.4944 -0.694,-0.1664 -0.66,-1.2654 -1.318,-1.4846 -1.46,-0.4864 -3.302,-0.6076 -4.828,-0.6076 -0.996,0 -2.434,0.3516 -3.424,0.2266 -0.182,-0.0228 0.002,-0.4044 0,-0.6046 z m 47.364,-61.0606 c 0.004,2.0382 0.222,4.2466 0.228,6.3808 0.01,2.7466 -0.19,5.2072 -0.18,7.9758 0.01,2.9482 0.23,6.2048 0.23,9.088 0,2.3436 -0.428,6.8484 -0.246,8.795 0.232,2.5028 0.37,2.9364 3.792,2.9364 1.656,0 3.9,-1.6986 5.554,-3.4152 1.132,-1.175 0.962,-3.2034 1.396,-4.0808 0.64,-1.2896 1.734,-2.4692 1.962,-3.9664 0.292,-1.9258 -0.412,-3.5156 0.872,-4.7474 0.506,-0.4872 0.984,-6.0168 0.984,-7.2336 0,-1.7344 -1.822,-4.3064 -3.916,-6.6076 -1.432,-1.5746 -3.15,-2.9878 -3.882,-4.0664 -1.342,-1.9748 -2.346,-2.8412 -3.936,-3.1964 -2.904,-0.6486 -2.86,-0.382 -2.858,2.1378 z m -15.332,108.533 c -0.542,2.14 1.106,3.014 3.056,4.274 1.946,1.26 4.198,2.908 6.318,4.646 3.588,2.94 6.03,8.306 8.364,13.59 1.202,-1.278 0.354,-7.234 1.028,-10.802 0.144,-0.764 0.968,-1.316 1.046,-2.09 0.276,-2.774 0.344,-5.596 0,-8.362 -0.13,-1.032 -1.128,-1.786 -1.394,-2.788 -0.21,-0.786 -0.16,-1.644 0,-2.44 0.194,-0.972 0.956,-1.8 1.044,-2.788 0.264,-2.892 0.436,-5.84 0,-8.71 -0.164,-1.084 -1.824,-1.696 -1.742,-2.788 0.07,-0.904 2.024,-0.838 2.092,-1.742 0.19,-2.5904 -0.708,-5.0902 -1.028,-7.6664 -0.724,-5.7916 -1.146,-11.6172 -1.744,-17.4226 -0.214,-2.0922 -1.05,-4.1988 -0.696,-6.272 1.09,-2.828 2.086,-5.733 3.136,-8.0144 0.512,-0.6724 1.188,0.6412 1.708,1.307 1.698,2.1684 3.954,4.8518 4.442,7.5616 0.598,3.3226 -1.202,6.2622 -0.818,9.6168 0.112,0.9788 1.62,0.8032 1.968,1.7248 1.664,4.4028 3.016,8.9546 3.834,13.5896 0.932,5.2816 1.232,10.6676 1.394,16.0296 0.07,2.332 -0.03,4.732 -0.698,6.968 -0.952,3.194 -2.936,5.74 -3.92,8.826 -1.03,3.228 -1.362,4.192 2.054,4.19 1.352,-0.002 2.93,0.052 3.974,0.574 2.796,1.398 3.95,4.622 6.604,6.272 0.574,0.356 1.324,0.85 2.114,1.292 3.764,2.108 4.178,0.652 4.962,-2.644 1.034,-4.358 1.296,-8.288 1.966,-12.586 0.342,-2.18 0.27,-4.416 0.366,-6.62 0.136,-3.142 0.372,-6.268 0.21,-9.41 -0.074,-1.466 -0.066,-3.07 -1.028,-4.18 -0.722,-0.834 -2.852,0.018 -3.136,-1.046 -0.39,-1.458 1.714,-2.672 1.742,-4.182 -0.576,-4.0738 -1.104,-7.7194 -1.172,-11.7348 -0.078,-4.7338 -1.092,-2.351 -2.662,-4.2064 -0.948,-1.1212 -1.244,-2.1098 -1.392,-3.5712 -0.438,-4.277 0.182,-9.0098 -0.472,-13.2586 -0.292,-1.9 -1.18,-3.774 -2.438,-5.2268 -0.456,-0.5266 -1.292,0.2568 -1.604,-0.3662 -0.522,-1.0438 1.082,-1.7584 0.47,-2.7524 -1.422,-2.3092 -4.398,-4.0718 -6.654,-5.5752 -0.676,-0.4506 -1.866,0.5748 -2.44,0 -0.574,-0.5748 -0.56,-2.3394 0,-2.9272 4.018,-0.5818 6.086,-2.4736 8.048,-4.7386 2.662,-3.0706 3.964,-6.4936 5.298,-10.3314 0.616,-1.769 -0.172,-3.8364 0.034,-5.6974 0.382,-3.4438 2.188,-6.5712 1.586,-9.9834 -0.874,-4.9622 -3.32,-9.409 -6.132,-13.5896 -1.562,-2.3208 -3.988,-4.3778 -6.516,-5.5752 -2.11,-0.9992 -3.876,-0.1632 -6.116,-0.8186 -2.594,-0.7588 -4.672,-2.2098 -7.318,-2.7522 -2.06,-0.4224 -4.222,0.4372 -6.272,-0.0354 -1.28,-0.2952 -1.488,-1.734 -2.788,-1.9336 -0.896,-0.138 -1.812,1.1604 -2.716,1.2368 -6.25,0.5294 -11.38,-0.6812 -17.6,0.1394 -0.928,0.1226 -0.664,1.1576 0.106,1.69 1.15,0.7958 2.898,0.4028 4.182,0.9582 2.304,0.9984 4.076,2.3406 5.784,4.1814 1.414,1.5224 1.99,3.2158 3.274,5.5752 0.528,0.9672 2.046,-0.89 3.138,-1.0454 1.378,-0.1968 2.336,-0.2338 3.206,0.854 0.782,0.9758 -0.836,2.2762 -1.758,3.118 -1.866,1.7008 -3.136,2.6016 -4.786,3.7308 -1.128,0.773 -3.126,1.467 -3.964,2.977 -1.86,3.35 0.346,7.1598 1.062,10.9242 0.262,1.373 0.562,2.7152 0.874,4.077 1.012,4.4278 0.672,8.113 1.288,12.6132 0.2,1.4546 1.232,2.722 1.394,4.1814 0.192,1.7348 -0.12,3.0128 0.14,4.7388 0.108,0.7348 0.71,1.5138 0.906,2.2302 0.868,3.1864 1.632,7.1884 1.742,10.489 0.356,10.7964 -0.284,21.3734 0.26,32.163 0.05,0.982 1.524,1.37 1.726,2.334 0.314,1.494 -0.682,3.21 -1.184,4.652 -2.062,5.904 -4.48,10.322 -5.752,15.348 z"
       id="path2894" />
  </g>
</svg>
